<?xml version="1.0" encoding="utf-8"?>
<!-- Generator: Adobe Illustrator 14.0.0, SVG Export Plug-In . SVG Version: 6.00 Build 43363)  -->
<svg version="1.2" baseProfile="tiny" id="Ebene_1" xmlns="http://www.w3.org/2000/svg" xmlns:xlink="http://www.w3.org/1999/xlink"
	 x="0px" y="0px" width="98.64px" height="75.3px" viewBox="0 0 98.64 75.3" xml:space="preserve">
<rect y="56.325" width="98.641" height="0.78"/>
<rect y="46.965" width="98.641" height="0.78"/>
<rect y="37.605" width="98.641" height="0.78"/>
<rect y="28.245" width="98.641" height="0.78"/>
<rect y="18.885" width="98.641" height="0.78"/>
<g>
	<path d="M19.702,57.75c-1.225,0-2.387-0.194-3.487-0.581c-1.101-0.388-2.106-0.894-3.019-1.519c-0.913-0.625-1.713-1.338-2.4-2.138
		c-0.688-0.8-1.219-1.612-1.594-2.438c-0.375-0.775-0.662-1.476-0.862-2.1c-0.2-0.625-0.351-1.231-0.45-1.819
		c-0.1-0.587-0.156-1.187-0.168-1.8c-0.014-0.612-0.02-1.281-0.02-2.006c0.025-1.225,0.25-2.569,0.676-4.031
		c0.424-1.462,1.024-2.831,1.799-4.106c0.525-0.875,1.069-1.669,1.632-2.381s1.144-1.388,1.743-2.025
		c0.601-0.638,1.238-1.269,1.913-1.894c0.675-0.625,1.412-1.275,2.212-1.95c-0.425-1.625-0.861-3.294-1.313-5.006
		c-0.449-1.712-0.674-3.394-0.674-5.044c0-2.1,0.262-4.069,0.787-5.906s1.188-3.418,1.987-4.744
		c0.249-0.425,0.544-0.887,0.882-1.388c0.337-0.5,0.736-1.024,1.199-1.575c0.463-0.55,1.013-1.1,1.65-1.65
		c0.637-0.55,1.393-1.1,2.269-1.65c0.675,0.951,1.325,2.057,1.95,3.319c0.625,1.263,1.111,2.544,1.463,3.844
		c0.35,1.225,0.594,2.381,0.73,3.469s0.207,2.069,0.207,2.944c0,1.6-0.188,3.288-0.563,5.063c-0.375,1.775-0.976,3.388-1.801,4.837
		c-0.3,0.5-0.675,1.082-1.125,1.744c-0.449,0.663-0.943,1.332-1.48,2.006c-0.539,0.675-1.102,1.326-1.688,1.95
		c-0.588,0.625-1.157,1.163-1.707,1.612c0.125,0.65,0.23,1.213,0.318,1.688c0.088,0.475,0.176,0.944,0.264,1.406
		c0.087,0.463,0.174,0.938,0.262,1.425c0.088,0.487,0.193,1.056,0.318,1.706c1.525-0.15,2.957,0,4.295,0.45
		c1.336,0.45,2.499,1.112,3.486,1.987c0.988,0.875,1.77,1.938,2.344,3.188c0.576,1.25,0.863,2.613,0.863,4.087
		c0,1.025-0.131,2.056-0.395,3.094c-0.262,1.037-0.693,2.019-1.293,2.944c-0.6,0.925-1.369,1.781-2.307,2.569
		s-2.081,1.444-3.432,1.969l1.238,5.85c0.25,1.2,0.287,2.381,0.112,3.543s-0.55,2.293-1.125,3.394
		c-0.7,1.299-1.675,2.331-2.925,3.094c-1.25,0.762-2.688,1.144-4.313,1.144c-0.75,0-1.525-0.138-2.325-0.413
		c-0.8-0.275-1.538-0.694-2.212-1.256c-0.676-0.563-1.226-1.269-1.65-2.119c-0.426-0.85-0.638-1.85-0.638-3
		c0-0.525,0.087-1.094,0.263-1.706c0.174-0.613,0.443-1.175,0.807-1.688c0.361-0.513,0.818-0.938,1.368-1.275
		c0.55-0.338,1.2-0.52,1.95-0.544c0.824-0.025,1.531,0.094,2.119,0.356c0.586,0.262,1.063,0.6,1.424,1.012
		c0.363,0.413,0.625,0.875,0.788,1.388c0.163,0.512,0.243,1.018,0.243,1.519c0,0.45-0.08,0.906-0.243,1.369
		c-0.163,0.462-0.394,0.881-0.694,1.256c-0.299,0.375-0.668,0.675-1.105,0.9c-0.438,0.225-0.932,0.338-1.481,0.338
		c-0.375,0-0.75-0.025-1.125-0.075c-0.375-0.05-0.712-0.163-1.013-0.337c0.15,0.525,0.381,0.943,0.693,1.256
		c0.313,0.312,0.688,0.556,1.125,0.731c0.438,0.175,0.913,0.293,1.426,0.356c0.512,0.062,1.043,0.094,1.594,0.094
		c0.949,0,1.838-0.344,2.662-1.031c0.825-0.688,1.513-1.519,2.063-2.494c0.4-0.726,0.676-1.588,0.825-2.588s0.112-2.075-0.112-3.225
		l-1.162-5.55L19.702,57.75z M20.79,41.962c-1.4,0.525-2.35,1.225-2.85,2.1c-0.501,0.875-0.75,1.851-0.75,2.925
		c0,1.325,0.211,2.431,0.637,3.319c0.426,0.887,1,1.693,1.725,2.418c0.1,0.125,0.138,0.256,0.113,0.394
		c-0.025,0.137-0.188,0.144-0.488,0.019c-1.225-0.8-2.219-1.775-2.98-2.925c-0.764-1.15-1.219-2.438-1.369-3.863
		c-0.225-2.049,0.075-3.831,0.9-5.344c0.824-1.512,2.3-2.719,4.425-3.619l-1.05-5.212c-1.25,1-2.369,2.006-3.356,3.019
		c-0.987,1.013-1.819,2.006-2.493,2.981c-0.775,1.125-1.345,2.35-1.707,3.675c-0.362,1.326-0.557,2.55-0.581,3.675
		c0,0.675,0.094,1.425,0.281,2.25c0.188,0.825,0.456,1.637,0.806,2.438c0.351,0.8,0.77,1.543,1.257,2.231
		c0.487,0.688,1.031,1.256,1.632,1.707c0.624,0.475,1.25,0.85,1.875,1.125c0.624,0.274,1.274,0.469,1.949,0.581
		c0.676,0.112,1.4,0.169,2.176,0.169c0.773,0,1.637-0.051,2.587-0.15c-0.375-2.25-0.813-4.594-1.313-7.031
		c-0.501-2.438-0.925-4.768-1.274-6.994L20.79,41.962z M26.489,8.119c-0.299-0.987-0.774-1.981-1.424-2.981
		c-1.125,0.95-2.125,1.9-3,2.85c-0.876,0.95-1.619,1.957-2.232,3.019c-0.612,1.063-1.081,2.212-1.406,3.45
		c-0.324,1.237-0.486,2.619-0.486,4.144c0,1.326,0.149,2.55,0.449,3.675c0.301,1.125,0.588,2.338,0.863,3.637
		c1.049-1.075,2.043-2.119,2.98-3.131c0.938-1.012,1.763-2.087,2.475-3.225c0.713-1.138,1.275-2.387,1.688-3.75
		c0.413-1.362,0.619-2.931,0.619-4.707C26.964,10.1,26.79,9.106,26.489,8.119z M24.878,55.65c1.774-0.7,3.068-1.675,3.881-2.925
		c0.813-1.25,1.219-2.725,1.219-4.425c0-0.675-0.145-1.406-0.432-2.194s-0.737-1.512-1.35-2.175c-0.613-0.662-1.4-1.206-2.363-1.631
		c-0.962-0.425-2.131-0.625-3.506-0.6L24.878,55.65z"/>
</g>
<g>
	<path d="M55.478,33.397c0.199-0.5,0.469-0.975,0.806-1.425c0.338-0.45,0.731-0.868,1.182-1.256c0.45-0.387,0.912-0.718,1.388-0.994
		c0.675-0.399,1.431-0.718,2.269-0.956c0.837-0.237,1.918-0.356,3.243-0.356c1.2,0,2.162,0.307,2.888,0.919
		c0.725,0.613,1.088,1.481,1.088,2.606c0,1.025-0.3,1.875-0.9,2.55c-0.6,0.675-1.425,1.375-2.475,2.1
		c-0.801,0.475-1.669,0.844-2.606,1.106s-1.844,0.394-2.719,0.394c-1.425-0.025-2.525-0.294-3.3-0.806
		c-0.775-0.513-1.163-1.293-1.163-2.344C55.177,34.41,55.276,33.897,55.478,33.397z"/>
</g>
<rect x="55.141" y="34.845" width="1.08" height="31.08"/>
</svg>
